<?xml version="1.0" standalone="no"?>
<!DOCTYPE svg PUBLIC "-//W3C//DTD SVG 20010904//EN"
 "http://www.w3.org/TR/2001/REC-SVG-20010904/DTD/svg10.dtd">
<svg version="1.0" xmlns="http://www.w3.org/2000/svg"
 width="1024.000000pt" height="1024.000000pt" viewBox="0 0 1024.000000 1024.000000"
 preserveAspectRatio="xMidYMid meet">
<metadata>
Created by potrace 1.16, written by Peter Selinger 2001-2019
</metadata>
<g transform="translate(0.000000,1024.000000) scale(0.100000,-0.100000)"
fill="#000000" stroke="none">
<path d="M0 5120 l0 -5120 5120 0 5120 0 0 5120 0 5120 -5120 0 -5120 0 0
-5120z m5650 4461 c290 -47 502 -92 685 -147 198 -60 349 -123 695 -289 448
-215 775 -455 1045 -765 45 -52 91 -103 101 -112 175 -160 330 -362 469 -608
48 -85 119 -207 156 -272 84 -141 97 -170 167 -368 133 -380 154 -447 196
-640 134 -608 122 -1213 -38 -1890 -16 -68 -114 -363 -161 -484 -57 -150 -242
-496 -344 -645 -10 -14 -51 -75 -91 -136 -123 -184 -332 -444 -316 -392 4 11
2 16 -5 12 -5 -4 -7 -14 -4 -24 9 -29 -303 -326 -558 -529 -219 -175 -538
-372 -600 -372 -10 0 -31 -7 -48 -15 -16 -9 -35 -13 -42 -9 -7 4 -9 3 -4 -1 4
-5 -18 -19 -49 -32 -62 -25 -85 -24 -35 2 17 8 31 19 31 24 0 5 9 7 20 4 11
-3 20 -1 20 4 0 8 69 31 118 39 38 7 45 14 31 32 -13 16 -12 15 7 -1 19 -16
23 -16 34 -2 10 12 10 18 -1 32 -13 15 -12 15 5 6 12 -7 29 -8 42 -3 12 5 25
6 30 2 4 -4 4 -2 0 5 -4 7 2 13 16 15 17 2 22 9 20 23 -3 16 -1 17 9 8 18 -18
85 23 115 70 14 21 29 35 35 32 5 -4 6 -11 3 -17 -5 -7 -2 -8 5 -4 9 6 8 13
-5 27 -14 16 -15 22 -5 32 10 9 12 9 9 -2 -2 -7 4 -16 12 -18 9 -3 11 -1 5 4
-10 8 -16 33 -16 66 0 17 -2 17 -22 4 -12 -8 -22 -19 -22 -25 0 -6 -4 -14 -9
-19 -5 -5 -6 -3 -2 5 4 6 4 12 0 12 -11 0 -75 -42 -71 -46 2 -3 25 -5 51 -7
44 -2 53 -6 39 -20 -3 -4 -13 -1 -21 6 -13 10 -14 9 -4 -10 10 -19 9 -25 -10
-43 -26 -24 -46 -27 -27 -3 13 15 12 16 -8 11 -16 -4 -23 -2 -23 9 0 8 4 12 9
8 6 -3 9 3 8 14 -2 31 -34 22 -147 -43 -189 -108 -512 -257 -663 -305 -22 -8
-34 -17 -31 -23 4 -7 2 -8 -4 -4 -7 4 -72 -11 -144 -32 -350 -104 -602 -150
-947 -172 -184 -12 -401 -13 -401 -2 0 4 46 6 102 4 258 -9 667 36 958 104
1011 237 1857 819 2452 1689 228 333 403 718 519 1138 109 399 145 693 136
1112 -9 384 -49 631 -192 1183 -33 124 -97 283 -129 314 -7 8 -38 66 -68 129
-30 63 -90 175 -133 249 -459 792 -1152 1396 -1965 1713 -377 147 -706 225
-1161 277 -171 20 -645 11 -839 -15 -356 -48 -593 -106 -920 -227 -382 -141
-706 -318 -1035 -568 -539 -408 -1003 -1009 -1260 -1630 -116 -280 -217 -638
-260 -915 -60 -392 -58 -853 6 -1230 139 -827 595 -1667 1220 -2247 303 -282
581 -473 944 -653 478 -236 925 -360 1475 -409 80 -8 120 -14 90 -15 -155 -3
-622 69 -830 129 -236 67 -559 189 -741 281 -55 27 -105 47 -111 43 -6 -4 -8
-3 -5 3 7 11 -91 69 -110 65 -7 -2 -13 1 -13 7 0 15 -119 83 -131 75 -7 -4 -9
-3 -6 3 10 16 -55 55 -66 40 -6 -8 -7 -7 -4 4 3 10 -11 27 -45 50 -28 19 -60
41 -72 49 -12 8 -53 39 -90 69 -59 47 -69 52 -78 38 -13 -24 -23 -21 -25 5 -2
16 0 19 6 9 5 -7 11 -9 14 -4 4 6 -6 20 -21 33 -74 63 -170 149 -210 188 -24
23 -49 39 -54 35 -6 -3 -8 -1 -4 5 10 17 -10 23 -24 7 -17 -20 -30 -19 -30 3
0 13 2 14 9 4 6 -11 10 -10 19 1 13 15 2 30 -54 77 -17 14 -33 33 -37 43 -4
10 -12 14 -22 11 -12 -5 -13 -9 -4 -20 7 -9 8 -14 1 -14 -15 0 -22 26 -10 38
6 6 7 16 3 22 -5 8 -11 8 -17 2 -6 -6 -18 -8 -27 -4 -14 5 -14 3 1 -12 17 -16
22 -30 19 -49 0 -4 9 -7 20 -7 18 0 19 -2 9 -15 -11 -14 -10 -14 13 -6 24 9
25 8 22 -17 -2 -15 -4 -31 -4 -36 -1 -5 -8 -3 -16 4 -19 16 -19 3 0 -16 8 -9
15 -11 15 -5 0 6 9 11 19 11 20 0 68 -66 57 -77 -3 -4 -6 0 -6 8 0 11 -2 11
-10 -1 -8 -12 -10 -12 -11 5 0 11 -3 14 -6 7 -7 -19 15 -41 37 -35 12 3 17 11
13 21 -6 15 -4 15 14 -1 11 -9 22 -14 26 -11 3 3 10 -3 16 -14 6 -11 7 -22 4
-26 -3 -3 -1 -6 6 -6 6 0 16 -10 21 -22 6 -16 9 -18 9 -6 1 13 7 15 29 9 15
-5 26 -13 24 -20 -1 -6 3 -11 8 -11 13 0 9 -32 -5 -43 -6 -5 -2 -6 8 -3 13 4
17 1 15 -11 -2 -9 3 -18 11 -21 10 -3 12 1 8 17 -7 26 -6 26 27 -4 15 -14 32
-22 38 -19 7 4 8 2 4 -4 -4 -7 -3 -12 1 -12 5 0 9 -12 10 -27 1 -16 -1 -22 -4
-14 -5 11 -7 11 -14 0 -7 -11 -9 -11 -9 -1 0 7 -5 10 -11 7 -7 -5 -4 -14 7
-26 12 -13 21 -16 29 -9 9 8 12 5 11 -11 0 -12 5 -24 12 -26 8 -3 10 1 5 14
-7 17 -6 17 12 0 14 -15 20 -16 27 -5 5 8 6 1 3 -19 -3 -17 -1 -34 4 -37 10
-7 24 22 16 34 -3 5 -1 11 4 14 6 4 8 -8 5 -28 -4 -36 16 -64 37 -50 7 4 9 3
5 -4 -8 -13 33 -44 47 -35 6 4 7 1 2 -7 -6 -10 -4 -12 8 -7 9 3 16 3 16 -1 -3
-20 2 -25 12 -12 9 13 10 12 5 -2 -6 -21 -2 -22 24 -8 13 7 19 6 24 -6 5 -12
1 -14 -17 -8 -21 6 -21 6 3 -13 56 -42 77 -52 89 -40 8 8 11 5 11 -11 0 -15
12 -28 42 -43 24 -12 50 -27 58 -34 21 -17 157 -89 200 -105 19 -7 42 -19 50
-26 27 -22 288 -134 314 -134 14 0 29 -6 33 -13 9 -13 100 -49 208 -79 39 -11
84 -26 100 -34 17 -7 42 -15 55 -18 41 -8 116 -35 102 -35 -20 -1 -171 43
-317 92 -380 129 -788 341 -1100 572 -307 228 -722 659 -967 1006 -134 190
-294 486 -391 724 -62 150 -153 425 -182 548 -36 155 -105 540 -115 647 -49
491 6 1035 155 1539 25 83 58 183 74 223 39 97 134 297 181 378 20 36 66 121
102 190 157 303 448 693 712 954 378 373 827 666 1314 856 351 138 523 185
897 250 317 55 368 59 745 56 278 -2 344 -6 460 -25z m-472 -441 l43 0 -3 -42
-3 -43 -108 -3 -108 -3 3 -61 3 -61 103 2 102 2 0 -40 0 -41 -74 0 c-40 0 -88
-3 -105 -6 -30 -6 -31 -7 -31 -65 l0 -59 114 0 113 0 6 -37 c4 -21 3 -41 -1
-45 -4 -3 -83 -8 -177 -9 l-170 -3 0 255 0 254 105 6 c58 3 114 4 125 2 11 -1
39 -3 63 -3z m452 -42 c136 -26 200 -98 200 -226 0 -169 -87 -267 -235 -266
-55 0 -235 22 -235 28 0 0 14 107 30 236 16 129 30 239 30 243 0 10 129 1 210
-15z m-949 -43 c26 -190 52 -435 48 -439 -3 -3 -25 -6 -49 -8 l-45 -3 -19 163
c-11 89 -22 162 -26 162 -7 0 -50 -269 -50 -312 0 -34 -24 -48 -84 -48 -38 0
-46 4 -52 23 -7 22 -133 298 -140 306 -12 13 -11 -11 1 -59 15 -59 55 -269 55
-287 0 -6 -16 -14 -36 -17 -19 -4 -41 -9 -47 -12 -9 -3 -18 29 -30 103 -10 60
-29 170 -43 247 -14 76 -23 141 -20 143 11 11 158 35 166 27 11 -11 93 -205
130 -306 l27 -76 6 101 c5 89 35 317 42 325 4 4 119 20 140 18 16 -1 21 -11
26 -51z m1447 -60 c3 -2 -118 -477 -122 -483 -3 -3 -108 17 -113 21 -4 4 102
426 122 484 3 9 17 8 57 -3 29 -9 54 -17 56 -19z m-2332 -194 c-3 -5 -33 -19
-66 -31 -33 -13 -59 -26 -58 -29 72 -161 158 -376 155 -385 -5 -12 -95 -52
-101 -45 -2 2 -38 85 -81 184 -43 99 -81 184 -86 189 -5 5 -30 0 -60 -12 -28
-12 -57 -22 -65 -22 -16 0 -39 69 -27 81 4 4 87 42 183 83 l175 75 18 -40 c10
-22 16 -43 13 -48z m2721 64 c83 -35 138 -107 150 -196 l6 -39 -52 0 c-68 0
-91 13 -91 50 0 16 -11 41 -24 57 -20 23 -32 28 -69 28 -83 0 -139 -61 -145
-158 -4 -57 -1 -66 22 -94 47 -56 125 -64 175 -19 14 13 22 10 64 -20 46 -34
47 -35 32 -58 -18 -27 -68 -50 -132 -61 -105 -17 -222 58 -258 165 -44 134 31
301 156 346 48 17 123 17 166 -1z m-3158 -455 c73 -116 132 -212 130 -214 -28
-23 -87 -56 -100 -56 -9 0 -91 36 -182 80 -92 44 -170 80 -174 80 -4 0 7 -15
24 -32 31 -34 162 -213 169 -233 3 -6 -13 -25 -35 -43 l-39 -31 -57 82 c-179
260 -225 328 -225 334 1 5 25 24 54 44 l53 36 168 -83 c92 -46 170 -84 173
-84 3 0 -4 10 -15 23 -27 30 -163 241 -163 253 0 9 67 53 80 54 3 0 65 -95
139 -210z m3699 178 c26 -18 48 -33 50 -34 2 -1 -17 -91 -42 -200 -25 -110
-48 -227 -52 -261 -3 -35 -9 -63 -11 -63 -3 0 -28 12 -55 27 -48 26 -49 28
-43 62 3 20 8 43 10 51 3 11 -18 27 -69 55 -73 39 -75 39 -95 21 -11 -10 -25
-15 -32 -10 -8 4 -10 3 -5 -4 4 -7 1 -12 -6 -12 -18 0 -91 43 -90 53 1 10 374
346 385 346 5 1 30 -14 55 -31z m-1693 -228 c198 -18 357 -46 590 -106 123
-31 458 -175 621 -267 101 -56 314 -207 451 -318 146 -120 373 -385 516 -605
218 -335 373 -758 425 -1164 19 -150 21 -600 3 -730 -11 -82 -18 -112 -75
-352 -82 -342 -295 -763 -531 -1048 -98 -118 -304 -325 -408 -409 -335 -271
-769 -477 -1212 -575 -231 -51 -320 -60 -595 -61 -297 0 -444 16 -695 75 -360
86 -588 180 -879 363 -219 138 -303 204 -476 374 -153 150 -155 152 -133 168
14 10 20 22 16 33 -3 9 -4 15 -2 12 33 -40 42 -52 32 -46 -7 4 -13 3 -13 -3 0
-6 12 -17 26 -24 22 -11 24 -15 10 -20 -9 -4 -16 -1 -16 5 0 6 -3 8 -7 5 -3
-4 -12 1 -20 11 -13 16 -13 15 -4 -3 5 -11 19 -29 32 -40 19 -17 22 -18 16 -2
-4 11 -1 17 8 17 8 0 15 -4 15 -10 0 -5 7 -10 16 -10 12 0 14 -4 7 -12 -15
-20 -9 -43 10 -40 11 2 15 -2 11 -12 -4 -10 4 -16 25 -21 27 -6 43 -27 46 -60
0 -5 8 -9 18 -7 13 2 17 -2 15 -15 -2 -13 4 -19 25 -21 15 -2 27 -8 27 -13 0
-6 -4 -7 -10 -4 -18 11 -11 -1 12 -21 12 -10 19 -14 15 -9 -3 6 -1 17 4 25 8
11 9 8 6 -13 -2 -15 0 -30 4 -33 5 -3 9 -1 9 5 0 7 8 7 25 -1 14 -6 25 -17 25
-24 0 -8 7 -11 18 -8 13 5 14 4 3 -4 -27 -19 49 -70 92 -63 5 1 6 -3 3 -8 -8
-13 35 -53 50 -47 7 3 20 -2 31 -10 10 -9 12 -13 3 -9 -8 4 -6 -1 4 -9 16 -13
22 -13 28 -3 6 9 8 7 8 -5 0 -20 65 -62 81 -52 8 4 9 3 5 -4 -3 -6 3 -16 15
-23 17 -9 24 -8 31 2 7 11 8 9 6 -6 -2 -16 21 -31 132 -87 85 -43 142 -65 154
-62 13 4 16 3 11 -6 -6 -10 -1 -11 21 -6 18 4 24 3 16 -2 -9 -6 17 -19 80 -40
383 -127 724 -181 1063 -168 94 3 190 8 215 11 25 3 68 7 95 10 151 16 431 87
620 156 96 35 392 174 450 211 11 7 51 32 88 56 62 38 67 45 55 60 -12 15 -11
16 4 4 14 -12 22 -11 47 4 16 10 27 22 24 27 -3 6 -2 7 4 4 13 -8 88 47 88 65
1 7 6 12 13 11 7 -2 12 2 12 7 0 5 4 9 9 7 12 -3 92 63 87 71 -2 4 3 16 11 27
16 20 16 20 9 0 -6 -19 -5 -19 8 -2 7 9 17 17 23 17 5 0 21 13 36 28 22 23 25
31 14 41 -10 11 -9 12 1 7 9 -6 11 -1 8 18 -3 14 0 26 5 26 5 0 9 -6 8 -12 -4
-37 2 -41 26 -18 13 12 22 27 18 33 -3 6 -2 7 4 4 14 -9 45 33 40 54 -3 11 -1
17 4 13 5 -3 9 1 9 9 0 8 6 20 14 26 19 16 16 -10 -3 -33 -8 -9 -12 -19 -9
-22 6 -5 42 45 43 59 0 4 3 7 8 7 4 0 17 9 30 21 16 16 19 23 8 26 -11 5 -11
7 0 14 12 8 11 11 -1 20 -13 9 -13 10 0 6 8 -2 14 -13 13 -23 -1 -17 0 -17 15
3 9 11 35 42 56 67 21 26 36 49 34 52 -3 3 -15 -10 -26 -28 -25 -41 -72 -86
-72 -70 0 7 -6 12 -13 12 -7 0 -13 9 -13 20 0 13 4 16 10 10 18 -18 24 -11 22
25 -1 34 18 56 28 32 2 -7 5 -4 5 6 1 10 6 15 11 12 6 -3 10 -1 10 4 0 6 -5
11 -11 11 -5 0 -7 5 -3 11 4 7 1 10 -7 7 -8 -3 -13 -10 -12 -16 2 -6 -7 -16
-18 -22 -12 -7 -18 -18 -15 -26 3 -8 2 -13 -3 -9 -5 3 -19 -7 -30 -21 -17 -22
-19 -30 -9 -43 12 -14 11 -14 -4 -2 -11 8 -18 9 -18 3 0 -6 8 -16 18 -22 12
-8 13 -13 5 -16 -7 -3 -13 -12 -13 -20 0 -8 -5 -14 -11 -14 -5 0 -7 -5 -3 -11
4 -8 0 -8 -15 0 -11 7 -21 17 -21 23 0 6 -9 3 -20 -7 -21 -19 -28 -41 -8 -29
7 4 8 3 4 -4 -4 -6 -12 -9 -19 -7 -7 3 -21 -8 -32 -25 -11 -16 -23 -30 -27
-30 -4 0 -5 -8 -2 -17 5 -15 4 -16 -5 -3 -10 14 -12 13 -15 -10 0 -5 -4 -9 -7
-7 -12 4 -49 -35 -42 -46 3 -6 1 -7 -6 -3 -6 4 -14 0 -17 -8 -3 -9 -10 -16
-16 -16 -17 0 -117 -93 -111 -103 3 -6 1 -7 -5 -3 -6 4 -40 -15 -74 -42 -452
-353 -1005 -552 -1598 -575 l-115 -5 90 9 c50 5 142 13 205 19 704 61 1428
453 1870 1010 246 310 443 718 520 1075 60 279 83 599 61 830 -13 134 -68 417
-107 552 -162 560 -553 1095 -1056 1449 -360 253 -771 407 -1253 470 -162 22
-579 25 -700 5 -313 -50 -607 -141 -851 -264 -144 -72 -335 -191 -435 -269
-41 -31 -59 -37 -38 -11 13 15 12 15 -8 2 -12 -7 -18 -16 -13 -19 6 -4 -28
-39 -74 -78 -111 -96 -286 -278 -365 -380 -46 -58 -68 -79 -76 -72 -8 7 -12 5
-12 -5 0 -8 4 -12 9 -9 17 11 6 -9 -77 -134 -224 -340 -374 -748 -425 -1157
-15 -113 -15 -480 -1 -605 58 -506 259 -990 577 -1390 107 -134 306 -326 454
-436 389 -292 789 -465 1253 -544 91 -15 359 -40 441 -40 5 0 7 -2 4 -5 -8 -8
-321 14 -417 29 -284 46 -550 129 -806 251 -173 82 -473 279 -609 400 -144
126 -306 299 -387 413 -17 23 -36 39 -41 35 -7 -3 -8 -1 -4 6 10 15 -13 43
-27 34 -6 -3 -7 -1 -3 5 4 7 3 12 -2 12 -5 0 -9 6 -9 13 0 18 -72 127 -84 127
-6 0 -7 5 -4 10 3 6 -7 31 -24 56 -17 25 -31 52 -31 60 0 8 -5 12 -10 9 -6 -4
-7 -11 -4 -17 4 -6 3 -8 -3 -5 -6 4 -9 18 -7 33 3 32 -35 116 -49 107 -6 -3
-7 -1 -4 5 10 15 -3 43 -16 35 -6 -4 -7 -1 -3 6 9 13 -12 71 -24 71 -5 0 -6
-9 -3 -20 3 -11 8 -20 12 -20 4 0 7 -21 6 -47 0 -42 2 -48 20 -45 19 2 19 2 2
-9 -14 -8 -16 -14 -6 -25 6 -8 8 -14 3 -15 -5 -1 2 -4 15 -8 l25 -7 -25 -23
-24 -22 28 6 c18 5 27 3 27 -5 0 -6 -5 -8 -12 -4 -7 4 -5 -2 5 -14 11 -11 25
-18 32 -16 10 4 12 -3 9 -28 -3 -21 -2 -28 4 -20 7 11 10 9 15 -7 3 -12 1 -19
-4 -15 -5 3 -9 0 -9 -5 0 -14 13 -14 27 0 9 9 11 5 9 -15 -2 -17 2 -26 10 -26
8 0 14 -11 14 -26 0 -18 4 -25 14 -21 22 9 35 -13 30 -47 -4 -21 -3 -27 4 -17
7 10 11 10 17 1 4 -7 1 -16 -6 -21 -8 -5 -11 -9 -6 -10 4 -1 12 -3 17 -4 6 -1
14 -3 20 -4 5 0 9 -6 7 -13 -1 -6 8 -17 21 -23 23 -12 23 -13 3 -18 -12 -3
-19 -1 -16 3 6 10 -14 25 -22 16 -9 -8 18 -37 28 -30 8 5 13 -10 7 -20 -6 -8
35 -45 43 -40 5 3 6 -3 2 -12 -4 -11 -8 -13 -11 -6 -2 7 -8 10 -13 6 -17 -10
-9 -20 16 -20 14 0 25 6 25 13 0 11 3 11 13 1 12 -10 12 -15 0 -26 -15 -16 -7
-36 12 -28 8 3 18 -1 23 -7 14 -16 19 -54 8 -55 -5 0 -12 -6 -16 -12 -9 -14
-122 118 -197 230 -177 262 -315 570 -404 900 -100 369 -115 796 -43 1215 65
376 268 840 507 1157 89 118 247 297 341 386 182 172 485 376 733 494 254 121
624 227 918 263 125 16 415 18 560 5z m2092 -42 c18 -18 33 -36 33 -41 0 -5
-42 -59 -93 -121 -51 -61 -108 -131 -127 -155 l-34 -44 30 -26 c16 -14 58 -51
93 -82 l64 -56 -28 -35 -28 -36 -62 52 c-154 128 -214 182 -212 192 3 16 310
383 322 383 5 1 24 -13 42 -31z m-4803 -233 l-78 -72 33 -41 c18 -23 38 -42
44 -42 6 0 42 30 78 66 l67 67 31 -24 c16 -13 30 -29 30 -35 1 -6 -31 -42 -70
-79 l-71 -67 38 -39 c21 -21 42 -39 46 -39 5 0 44 35 89 77 l80 77 32 -32 32
-32 -110 -111 c-61 -61 -118 -115 -127 -120 -22 -12 -51 0 -44 18 3 8 2 12 -3
9 -11 -7 -321 311 -321 330 0 5 53 59 117 121 l118 112 34 -36 34 -36 -79 -72z
m2578 -272 c23 -15 56 -50 73 -77 27 -44 30 -57 30 -130 0 -91 -18 -137 -77
-193 -107 -103 -258 -75 -331 62 -18 32 -22 56 -21 122 2 133 43 194 159 235
64 23 113 18 167 -19z m-2750 -111 c95 -71 183 -135 196 -143 29 -18 28 -30
-8 -64 l-29 -28 -78 53 c-43 30 -111 78 -152 108 -40 30 -70 48 -65 40 14 -23
96 -131 161 -210 35 -43 63 -83 63 -90 0 -7 -11 -26 -24 -43 l-23 -29 -59 18
c-77 24 -172 57 -256 89 -38 14 -68 21 -68 16 0 -5 4 -9 8 -9 9 0 66 -45 209
-163 l83 -68 -20 -40 c-11 -21 -23 -39 -26 -39 -27 0 -174 110 -336 253 -76
66 -75 62 -11 136 l39 44 129 -42 c72 -23 147 -48 168 -56 20 -7 37 -11 37 -7
0 3 -15 22 -34 42 -58 59 -186 224 -186 239 0 20 80 121 96 121 7 0 91 -58
186 -128z m5467 58 c135 -68 186 -209 116 -316 l-15 -24 -36 40 c-34 37 -36
42 -29 88 6 47 5 49 -34 85 -34 30 -49 37 -84 37 -57 0 -109 -36 -147 -103
-56 -98 -35 -160 59 -173 44 -6 53 -11 71 -41 11 -19 20 -36 20 -38 0 -9 -67
-25 -104 -25 -57 0 -105 28 -143 84 -28 42 -33 57 -33 110 0 78 32 148 95 211
82 82 182 107 264 65z m-3349 -109 c49 -23 96 -90 121 -173 21 -69 21 -71 4
-170 -9 -54 -14 -102 -11 -106 4 -3 60 -34 124 -67 l117 -60 3 -51 c2 -38 -2
-56 -16 -75 -18 -22 -20 -22 -20 -4 1 38 -2 46 -14 39 -7 -5 -9 -2 -5 9 8 20
-18 43 -29 26 -5 -8 -3 -9 6 -4 7 5 11 4 8 -1 -8 -12 -68 -11 -67 1 1 6 5 9
11 7 5 -1 7 2 3 8 -3 6 -12 7 -18 3 -12 -8 -17 -9 -38 -12 -5 0 -8 -5 -5 -10
3 -5 0 -11 -7 -14 -10 -4 -13 2 -9 19 3 18 0 24 -9 22 -19 -4 -29 -31 -15 -40
7 -5 4 -8 -6 -8 -10 0 -18 5 -18 11 0 5 -4 8 -10 4 -5 -3 -18 3 -30 15 -11 11
-20 15 -20 9 0 -6 -7 -9 -15 -5 -9 3 -15 0 -15 -10 0 -12 4 -12 20 -4 11 6 20
7 20 1 0 -17 -34 -23 -45 -7 -7 8 -23 13 -38 12 -15 -2 -27 2 -28 8 -1 22 -27
-63 -30 -101 -2 -21 -12 -47 -22 -58 -10 -11 -29 -43 -44 -72 -14 -29 -27 -53
-29 -53 -6 0 16 52 47 110 16 30 33 79 39 108 5 30 12 58 15 63 17 26 -13 1
-78 -67 -79 -84 -285 -234 -322 -234 -5 0 9 11 33 25 60 34 212 145 239 174
13 13 20 28 16 34 -3 5 -2 7 4 4 5 -3 25 10 44 31 19 20 25 29 13 19 -16 -13
-23 -14 -32 -5 -7 7 -12 8 -12 2 0 -5 -4 -2 -9 5 -6 9 -6 23 1 35 9 17 8 19
-3 9 -15 -15 -33 -17 -24 -3 3 6 -1 7 -9 4 -19 -7 -22 -25 -4 -21 7 1 12 -2
13 -8 0 -5 4 -16 8 -22 5 -8 4 -13 -3 -13 -6 0 -13 7 -16 15 -4 8 -13 15 -21
15 -8 0 -11 -4 -8 -10 3 -5 2 -10 -4 -10 -5 0 -13 5 -16 10 -3 6 -14 10 -23
10 -13 0 -13 -2 4 -15 18 -14 18 -14 -3 -10 -13 2 -23 0 -23 -6 0 -5 7 -9 15
-9 13 0 12 -4 -4 -21 -11 -12 -25 -18 -31 -14 -6 4 -19 3 -28 -1 -9 -4 -26 -9
-36 -11 -10 -2 -50 -33 -88 -69 -43 -40 -97 -79 -144 -102 -70 -34 -73 -37
-51 -49 12 -7 31 -13 42 -13 11 -1 14 -4 8 -7 -17 -6 -83 16 -83 28 0 5 26 22
58 38 76 39 171 111 214 163 44 54 178 251 178 262 0 4 -37 -27 -82 -70 -185
-173 -400 -304 -543 -329 -59 -10 -40 1 35 20 107 27 320 152 401 234 14 14
34 31 45 37 10 6 20 22 22 35 l3 24 -16 -23 c-15 -21 -18 -22 -29 -7 -10 14
-12 14 -13 -6 -3 -32 -13 -37 -30 -11 -18 26 -38 28 -59 7 -9 -8 -24 -15 -35
-15 -14 0 -18 -4 -13 -12 6 -10 4 -10 -8 0 -18 15 -34 1 -23 -20 4 -7 -1 -4
-9 6 -14 18 -21 15 -17 -7 1 -5 -3 -6 -9 -2 -5 3 -36 -14 -68 -38 -96 -74
-273 -168 -315 -167 -7 1 20 13 58 28 72 29 185 97 265 161 97 77 217 187 253
232 39 50 49 72 20 47 -10 -8 -38 -26 -63 -40 -25 -14 -117 -69 -205 -123
-154 -94 -331 -186 -357 -184 -7 0 10 10 37 23 105 48 131 61 172 87 23 14 40
29 37 32 -3 3 0 8 7 13 8 4 10 3 5 -4 -14 -23 13 -11 40 17 15 17 31 28 35 25
4 -2 10 -1 13 4 2 4 -6 8 -20 8 -13 0 -24 -6 -24 -13 0 -9 -6 -10 -27 -2 -20
7 -28 6 -35 -3 -4 -7 -8 -8 -8 -2 0 6 -10 10 -22 9 -13 -1 -28 2 -35 7 -7 6
-25 2 -51 -11 -126 -64 -415 -161 -481 -161 -31 0 -1 10 92 30 239 52 521 200
843 442 281 211 361 243 474 189z m1214 15 c54 -16 99 -46 311 -202 82 -60
177 -128 210 -150 85 -57 287 -166 396 -214 91 -40 278 -100 315 -100 16 -1
15 -4 -8 -24 -28 -25 -107 -47 -161 -45 -22 1 -15 4 22 9 29 5 74 16 99 26
l46 17 -81 22 c-98 27 -208 68 -287 107 -32 16 -68 31 -80 32 -11 1 -22 6 -23
10 -3 17 -29 25 -66 20 -22 -2 -36 0 -33 5 3 5 -3 11 -14 14 -11 3 -23 1 -26
-4 -3 -5 3 -9 12 -9 10 0 15 -3 11 -6 -10 -10 -47 7 -47 21 0 9 6 12 15 9 9
-4 15 0 15 9 0 31 -18 26 -34 -8 -10 -20 -21 -33 -26 -30 -5 3 -12 0 -16 -6
-4 -8 -3 -9 4 -5 7 4 12 1 12 -6 0 -13 90 -69 235 -145 44 -23 77 -43 72 -43
-15 0 -166 80 -327 175 -91 54 -196 116 -235 138 -38 22 -89 55 -112 74 -74
59 -47 24 75 -99 124 -127 270 -251 365 -312 87 -56 217 -116 251 -116 44 0
21 -16 -49 -34 -65 -17 -139 -20 -170 -6 -13 6 -2 7 33 3 29 -3 79 0 113 7
l60 13 -63 27 c-71 30 -179 91 -252 144 -27 19 -54 32 -59 29 -6 -3 -7 -1 -3
5 8 13 -29 36 -59 37 -11 0 -26 4 -32 8 -7 5 -18 5 -25 1 -6 -4 -17 0 -23 10
-14 18 -49 11 -39 -8 3 -6 -1 -3 -9 6 -18 23 -53 20 -53 -5 0 -12 22 -36 56
-61 30 -22 57 -43 60 -46 14 -15 179 -115 224 -135 28 -13 44 -24 36 -24 -23
-1 -180 91 -295 172 -55 39 -137 108 -182 153 -46 46 -83 79 -83 75 0 -14 150
-233 197 -289 53 -61 141 -132 207 -163 45 -23 46 -23 24 -36 -13 -7 -30 -12
-38 -12 -8 0 -2 5 14 11 l28 10 -52 29 c-79 43 -157 107 -207 169 -25 30 -49
57 -54 58 -5 2 -9 10 -9 19 0 12 -2 12 -16 -2 -13 -12 -19 -13 -30 -4 -19 16
-86 18 -80 2 3 -6 -6 -14 -20 -17 -15 -4 -24 -14 -24 -25 0 -32 146 -157 235
-202 44 -22 69 -37 55 -33 -96 26 -261 152 -333 254 -23 33 -46 59 -50 59 -15
1 5 -113 28 -162 16 -33 20 -49 12 -54 -7 -3 -9 -3 -5 1 3 4 -5 24 -18 43 -13
20 -24 42 -24 50 0 8 -3 12 -7 10 -5 -3 -8 13 -8 36 0 27 -5 42 -15 44 -13 4
-13 3 0 -6 13 -9 13 -11 -2 -11 -10 0 -18 -4 -18 -10 0 -5 7 -7 15 -4 8 4 15
1 15 -5 0 -6 -7 -11 -16 -11 -9 0 -12 -5 -8 -12 5 -8 2 -9 -9 -5 -12 4 -17 1
-17 -11 0 -14 -2 -15 -9 -2 -6 8 -7 18 -4 24 3 5 1 6 -6 2 -6 -4 -8 -12 -5
-18 4 -5 -4 -5 -16 2 -20 11 -22 10 -17 -3 3 -8 0 -18 -8 -20 -20 -8 -26 3
-13 27 10 18 9 19 -4 8 -12 -10 -17 -10 -20 -1 -2 7 -15 14 -28 16 -24 3 -24
3 -5 -12 20 -16 20 -16 -2 -10 -14 4 -23 2 -23 -5 0 -6 -5 -8 -10 -5 -8 5 -7
11 1 21 7 8 7 14 1 14 -5 0 -12 -7 -16 -15 -9 -24 -40 -17 -71 15 -24 25 -30
28 -38 15 -4 -9 -13 -13 -18 -10 -5 4 -7 10 -4 15 3 5 1 11 -5 15 -6 4 -8 10
-6 14 3 4 -1 8 -9 8 -8 0 -14 -3 -13 -6 0 -3 -1 -15 -2 -26 -2 -13 -5 -7 -10
15 l-7 35 -3 -45 -2 -45 -8 54 c-5 30 -6 59 -4 65 3 6 41 31 86 56 44 25 98
58 120 74 l38 28 -6 102 c-8 121 5 187 46 245 51 70 111 104 191 110 9 0 37
-5 63 -13z m-614 -985 l0 -670 -52 -6 c-64 -7 -110 5 -114 29 -2 16 -1 16 14
3 28 -23 52 -28 93 -17 37 10 46 26 24 42 -6 5 -5 8 3 8 11 0 12 45 7 248 -3
136 -6 255 -6 265 0 17 -32 57 -45 57 -3 0 -3 -7 0 -16 6 -14 4 -15 -9 -4 -15
12 -15 14 -1 22 9 5 16 14 16 20 0 7 -5 6 -15 -2 -11 -9 -15 -9 -15 -1 0 6 6
14 14 17 9 4 13 14 9 27 -3 12 -5 32 -5 44 0 15 -5 20 -16 16 -10 -4 -13 -2
-8 5 4 7 2 12 -5 12 -8 0 -8 5 2 18 11 14 11 15 -1 5 -9 -8 -18 -9 -25 -3 -8
7 -12 5 -12 -5 0 -8 4 -12 9 -9 8 5 12 -9 9 -33 -1 -8 5 -11 16 -7 10 3 6 -2
-9 -11 l-28 -16 -2 -262 c0 -144 -1 -290 -1 -324 0 -35 -3 -63 -7 -63 -5 0 -9
286 -9 636 -1 606 -1 636 16 629 36 -15 69 -16 108 -1 22 8 41 15 43 15 1 1 2
-300 2 -668z m3085 606 c115 -65 177 -247 121 -355 -35 -68 -132 -134 -217
-147 -33 -5 -33 -5 6 8 22 8 59 24 83 36 38 19 41 23 28 37 -9 8 -23 14 -33
12 -20 -3 -25 19 -9 42 10 13 9 13 -6 1 -10 -7 -15 -18 -11 -24 4 -6 0 -8 -10
-4 -9 3 -32 0 -51 -8 -41 -18 -89 -19 -117 -5 -15 9 -23 7 -36 -6 -11 -11 -18
-13 -21 -5 -6 18 -22 12 -22 -9 0 -25 74 -69 123 -72 20 -2 37 -6 37 -10 0
-22 -92 7 -151 47 -57 40 -104 139 -104 221 0 50 5 69 30 110 79 126 254 191
360 131z m-6210 -173 c99 -47 199 -95 223 -106 l43 -19 -27 -48 c-29 -55 -32
-56 -204 -65 l-85 -5 103 14 c107 14 143 23 105 24 -19 1 -56 41 -38 41 4 0 3
5 -1 11 -4 8 -9 8 -17 0 -14 -14 -48 -14 -67 0 -11 8 -6 9 23 5 20 -2 37 -2
37 2 0 4 -79 38 -175 76 -96 37 -174 71 -172 75 25 53 44 81 57 81 9 0 97 -39
195 -86z m11 -157 c2 -2 -57 -7 -132 -10 -137 -5 -161 -10 -134 -27 13 -9 13
-10 0 -10 -13 0 -13 -1 0 -10 13 -9 8 -14 -12 -11 -8 1 -5 -20 5 -36 5 -8 3
-13 -3 -13 -7 0 -9 -7 -6 -16 3 -8 2 -12 -4 -9 -6 3 -10 -1 -10 -9 0 -13 -5
-14 -26 -5 -15 5 -29 8 -31 6 -2 -3 42 -23 99 -45 109 -42 268 -93 268 -86 0
3 9 0 19 -5 14 -8 20 -7 25 4 3 8 1 15 -5 15 -6 0 -7 5 -3 12 5 7 3 8 -7 2
-25 -15 -36 -12 -35 10 2 21 5 22 41 12 71 -22 -81 41 -172 70 -62 20 -115 39
-118 44 -8 13 23 20 104 25 l76 4 -75 -9 c-41 -6 -78 -11 -83 -13 -4 -1 54
-23 130 -49 76 -26 155 -54 175 -62 l37 -16 -16 -40 c-9 -22 -21 -40 -27 -40
-24 0 -454 147 -470 161 -8 7 28 123 44 141 3 5 60 10 125 14 66 3 120 6 121
7 4 4 96 -2 100 -6z m6498 -219 c8 -29 12 -56 8 -59 -6 -5 -188 -77 -329 -131
-29 -11 -53 -20 -53 -21 0 -1 9 -36 20 -77 31 -118 27 -130 -41 -130 -23 0
-30 5 -35 28 -16 61 -62 228 -68 243 -6 13 11 22 81 48 48 18 151 58 228 91
77 32 148 58 157 59 12 1 21 -14 32 -51z m-6753 -170 c25 -14 43 -34 53 -59
11 -27 20 -36 33 -33 63 14 175 34 188 34 18 0 19 -29 4 -82 l-10 -38 -82 0
c-115 0 -125 -4 -135 -54 -10 -49 -11 -48 92 -75 44 -12 81 -23 84 -25 2 -3
-1 -28 -8 -56 -9 -39 -16 -50 -29 -46 -9 3 -114 30 -235 61 -120 30 -224 59
-231 63 -10 5 -5 34 19 119 33 114 70 182 109 201 38 18 106 14 148 -10z
m2899 12 c50 -11 123 -41 116 -47 -2 -3 -18 3 -34 11 -17 9 -70 20 -119 26
-79 9 -96 7 -168 -12 -44 -12 -73 -24 -64 -26 20 -4 20 -49 0 -57 -8 -3 -11 0
-8 8 3 7 -3 13 -14 13 -13 0 -15 -4 -8 -12 7 -9 4 -14 -10 -19 -11 -3 -18 -13
-16 -23 1 -9 -2 -23 -8 -29 -12 -16 8 -43 33 -43 10 0 20 -7 24 -15 3 -8 1
-15 -4 -15 -6 0 -10 -4 -10 -10 0 -21 20 -9 26 15 3 14 10 23 14 20 4 -3 24 2
44 10 32 14 45 13 138 -5 57 -11 105 -20 107 -20 2 0 2 -2 -1 -5 -3 -3 -40 2
-84 10 -43 8 -95 15 -115 15 -41 0 -86 -30 -100 -67 -13 -34 19 -103 63 -136
61 -47 189 -99 324 -132 72 -18 158 -42 190 -53 32 -11 91 -30 129 -43 109
-35 282 -115 336 -155 98 -71 143 -148 142 -240 -1 -104 -61 -207 -160 -275
-63 -44 -165 -100 -170 -95 -3 3 15 15 39 27 85 43 188 121 188 142 0 5 -7 7
-15 3 -9 -3 -15 0 -15 10 0 8 4 13 9 9 5 -3 13 0 17 6 5 8 3 9 -6 4 -10 -6
-12 -4 -6 10 5 15 4 16 -9 5 -10 -9 -15 -9 -16 -1 -4 32 -6 36 -17 34 -7 -2
-12 2 -12 7 0 6 5 10 11 10 7 0 8 7 4 18 -4 9 -7 26 -7 37 1 15 -4 12 -20 -14
-38 -59 -117 -125 -209 -172 -49 -25 -86 -48 -83 -51 3 -3 0 -9 -7 -14 -8 -5
-10 -3 -4 6 6 9 2 10 -16 5 -40 -13 -84 -34 -71 -35 6 0 12 -5 12 -10 0 -7 -7
-7 -21 0 -13 7 -25 8 -32 2 -7 -5 -33 -16 -59 -25 -74 -24 -190 -125 -222
-190 -34 -74 -12 -199 47 -267 l22 -25 -27 24 c-45 40 -68 98 -68 175 0 86 20
126 104 202 75 70 70 67 251 139 230 93 324 156 366 248 26 59 24 72 -23 123
-45 49 -135 100 -247 139 -36 13 -104 37 -151 53 -47 16 -118 35 -157 42 -81
13 -101 25 -25 15 80 -11 163 -34 267 -74 55 -21 121 -46 147 -55 51 -19 155
-83 177 -109 7 -9 21 -17 30 -17 13 0 13 2 2 9 -8 5 -12 18 -8 30 3 12 1 19
-4 15 -5 -3 -9 5 -9 18 0 18 -2 20 -10 8 -7 -11 -10 -11 -10 -2 0 7 -9 23 -21
35 -14 15 -19 32 -17 55 3 23 0 32 -10 32 -11 0 -12 3 -3 14 9 10 2 18 -31 34
-103 51 -328 126 -502 167 -95 22 -187 54 -248 86 -23 12 -31 11 -23 0 3 -5 1
-12 -4 -16 -6 -3 -8 3 -6 15 5 26 -26 44 -45 27 -12 -10 -12 -9 -3 3 17 23
-19 46 -37 25 -8 -9 -8 -15 -2 -15 6 0 13 6 16 13 3 6 5 3 3 -8 -1 -12 -10
-20 -22 -20 -26 0 -65 42 -58 62 5 13 2 15 -16 10 -19 -5 -20 -3 -9 11 8 10 9
13 1 9 -6 -4 -14 -3 -17 2 -4 5 -2 12 4 16 16 10 12 24 -7 24 -54 3 -60 5 -55
25 3 13 1 17 -6 12 -7 -4 -12 -1 -12 8 0 9 -4 16 -8 16 -5 0 -10 -20 -10 -45
-1 -25 2 -45 8 -45 5 0 7 -6 4 -14 -7 -18 47 -131 78 -166 56 -61 324 -194
391 -192 15 0 27 -4 27 -9 0 -16 -34 -10 -121 22 -247 90 -352 183 -395 348
-22 86 -5 153 58 234 75 95 256 148 398 117z m1012 -20 c74 -27 150 -96 184
-165 22 -47 26 -65 22 -122 -2 -43 -12 -85 -26 -113 -23 -48 -117 -160 -134
-160 -5 0 11 21 36 46 43 43 61 74 34 58 -10 -6 -10 -4 0 7 17 18 15 30 -3 23
-11 -5 -15 1 -16 22 -1 18 -3 22 -6 11 -2 -9 -8 -15 -13 -12 -4 3 -6 14 -3 25
6 22 -14 53 -28 44 -5 -3 -9 1 -9 8 0 7 -10 -4 -23 -24 -25 -41 -54 -67 -113
-97 -66 -34 -234 -91 -314 -107 -116 -22 -130 -26 -130 -35 0 -5 5 -9 10 -9 6
0 59 -20 118 -45 l108 -45 87 25 c48 14 118 39 155 55 37 16 58 23 48 15 -26
-19 -161 -72 -236 -91 l-59 -15 -103 44 c-57 25 -113 48 -125 52 -23 6 -30 20
-15 29 5 3 57 15 117 26 189 38 369 113 426 177 42 48 41 112 -2 155 -32 32
-34 33 -154 13 l-30 -5 30 10 c17 6 56 14 88 19 48 6 59 5 67 -8 7 -13 9 -12
7 6 0 12 -4 20 -8 17 -11 -6 -22 34 -13 47 4 7 3 9 -4 5 -14 -8 -42 32 -42 62
0 13 -4 20 -10 17 -5 -3 -10 -1 -10 6 0 7 -3 10 -6 6 -3 -3 -17 5 -31 19 -13
13 -29 24 -36 24 -28 0 -142 -22 -152 -29 -16 -11 -65 -31 -65 -26 0 7 61 37
105 52 58 19 205 10 277 -17z m2972 -312 c8 -33 7 -86 -2 -92 -14 -8 -303 -57
-315 -53 -7 2 33 12 88 21 112 20 148 38 67 33 -38 -2 -52 1 -52 11 0 7 5 10
12 6 7 -4 8 -3 4 5 -4 6 -12 9 -17 6 -5 -4 -12 1 -16 10 -5 14 -15 16 -57 10
-43 -5 -206 -43 -213 -49 -3 -2 23 -169 33 -218 5 -24 11 -28 40 -28 l34 0 -6
48 c-3 26 -9 58 -13 72 -5 14 -5 35 0 48 7 18 16 22 46 21 l38 -1 -38 -10
c-34 -9 -38 -13 -33 -37 3 -14 8 -54 11 -87 l7 -62 -42 -7 c-23 -4 -44 -4 -48
0 -7 7 -26 118 -38 226 l-7 56 124 23 c68 12 174 33 234 45 143 30 151 30 159
3z m-7115 -185 c3 -2 -1 -56 -8 -119 -7 -64 -9 -120 -4 -124 4 -4 29 -10 54
-12 l45 -5 10 108 c6 60 13 111 16 114 3 3 23 2 44 -3 l39 -8 -5 -65 c-2 -35
-4 -84 -5 -109 l0 -45 51 -3 51 -3 7 62 c3 34 6 84 6 110 0 26 3 50 8 52 4 3
25 2 47 -2 29 -4 41 -12 44 -26 2 -11 -2 -87 -9 -169 l-13 -149 -131 7 c-72 3
-186 11 -253 18 l-123 11 0 29 c0 34 28 293 35 326 5 20 9 22 48 16 23 -4 44
-9 46 -11z m3316 -250 c77 -14 145 -37 145 -47 0 -3 -37 -16 -82 -30 -103 -32
-152 -60 -192 -109 -25 -32 -31 -48 -30 -87 0 -29 8 -59 20 -78 29 -46 104
-103 199 -151 47 -23 85 -46 85 -51 0 -5 -24 -16 -52 -26 -79 -25 -87 -26 -43
-5 22 11 48 20 58 20 33 2 16 16 -67 59 -71 36 -207 140 -206 157 0 3 -2 15
-4 28 -11 54 -14 110 -5 96 7 -12 9 -12 9 1 0 27 60 90 110 115 27 13 75 32
109 41 33 10 58 21 55 25 -7 12 -152 42 -174 36 -11 -3 -18 -1 -14 4 6 10 -65
13 -89 3 -9 -3 -13 -15 -11 -32 3 -23 2 -24 -4 -5 -6 19 -9 20 -26 8 -11 -8
-16 -20 -12 -30 3 -9 2 -14 -3 -11 -13 9 -34 -21 -25 -36 4 -7 4 -10 -1 -6 -4
4 -14 0 -22 -10 -12 -16 -13 -15 -6 3 3 11 10 27 16 35 5 8 -4 0 -21 -18 -40
-45 -66 -130 -59 -196 3 -32 2 -44 -3 -31 -14 33 -11 108 6 158 19 55 82 130
142 168 48 30 51 30 197 2z m3870 -184 c5 -122 4 -194 -2 -200 -6 -6 -28 -9
-49 -7 -30 2 -39 7 -41 23 -1 11 -5 73 -9 138 l-6 118 -51 -3 -52 -3 3 -80 c2
-44 5 -99 9 -122 l5 -43 -45 0 -46 0 -6 53 c-4 30 -5 84 -3 120 l3 67 -31 0
c-17 0 -45 -3 -61 -6 l-30 -6 5 -88 c2 -48 2 -103 -2 -122 -6 -34 -8 -35 -51
-34 l-45 1 0 95 c0 52 -3 132 -6 176 l-7 81 129 8 c71 4 147 10 169 15 22 4
79 8 126 9 l87 1 7 -191z m-3622 79 c14 -11 17 -43 23 -204 l7 -192 -32 -17
c-18 -9 -44 -15 -59 -13 l-27 3 2 204 c1 113 5 211 7 218 7 17 57 17 79 1z
m-3450 -193 c116 -20 224 -38 240 -41 l27 -6 0 -97 0 -98 -162 -51 c-172 -54
-307 -92 -325 -92 -6 0 -13 24 -15 54 l-3 55 45 11 c95 24 380 113 380 119 0
3 -95 21 -210 40 l-210 34 0 53 c0 30 5 54 10 54 6 0 106 -16 223 -35z m6864
-230 c67 -20 146 -90 169 -150 22 -58 14 -150 -18 -213 -19 -38 -34 -52 -80
-75 -31 -16 -62 -26 -67 -22 -6 3 -11 26 -11 50 0 37 4 47 31 66 44 31 73 98
58 136 -33 88 -175 141 -260 97 -36 -18 -79 -102 -79 -155 0 -42 30 -79 65
-79 25 0 29 8 41 73 6 36 8 38 38 31 17 -3 32 -8 34 -9 7 -6 -30 -184 -41
-199 -10 -13 -21 -14 -71 -6 -114 19 -161 83 -154 210 12 203 152 302 345 245z
m-3336 -225 c15 0 89 -72 105 -101 28 -56 9 -122 -58 -199 -17 -19 -96 -61
-173 -90 -79 -30 -93 -43 -74 -67 13 -16 12 -17 -3 -5 -13 10 -17 10 -22 0 -3
-7 -4 -2 -2 10 4 23 4 23 -15 6 -10 -9 -19 -25 -19 -36 0 -10 -2 -18 -4 -18
-2 0 -11 -3 -20 -6 -10 -4 -16 -1 -16 10 0 10 6 13 15 10 10 -4 15 0 15 10 0
23 -28 7 -44 -25 -6 -13 -17 -24 -23 -24 -6 0 -15 -4 -20 -9 -5 -5 -3 -6 5 -2
6 4 12 2 12 -3 0 -6 -7 -11 -15 -11 -13 0 -20 -18 -16 -42 0 -5 -3 -8 -8 -8
-6 0 -12 -19 -14 -42 l-4 -43 -1 48 c-4 95 64 173 197 227 172 70 235 106 271
157 64 89 40 177 -65 239 -25 14 -45 30 -45 36 0 5 7 2 16 -6 8 -9 20 -16 25
-16z m-3303 -29 c47 -24 64 -43 98 -111 37 -73 40 -174 7 -236 -43 -80 -128
-131 -238 -141 -139 -13 -238 74 -260 230 -17 111 57 218 178 256 81 26 167
27 215 2z m3222 -170 c0 -92 -3 -118 -17 -133 -20 -22 -27 -22 -47 -2 -13 12
-16 40 -16 139 l0 123 28 10 c44 16 52 -5 52 -137z m3250 -181 c124 -39 228
-74 232 -78 8 -8 -78 -352 -90 -364 -10 -9 -82 22 -82 36 0 6 11 57 25 114 14
57 25 110 25 117 0 16 -79 41 -90 28 -3 -4 -19 -55 -35 -113 -15 -58 -31 -108
-35 -113 -9 -11 -80 21 -80 36 0 6 14 59 30 117 17 58 30 106 30 108 0 4 -42
19 -76 26 -29 6 -32 4 -38 -21 -4 -15 -19 -65 -33 -111 -20 -65 -29 -82 -42
-78 -9 2 -28 7 -43 10 -18 4 -28 13 -28 24 0 27 93 342 99 337 4 -2 108 -35
231 -75z m-3025 -207 c8 -17 15 -55 15 -85 -1 -99 -55 -179 -180 -262 -87 -59
-156 -135 -171 -189 -6 -23 -15 -71 -19 -107 l-7 -65 -2 59 c-1 61 13 127 36
161 16 25 17 38 1 29 -7 -4 -11 -5 -8 -1 3 3 8 5 11 4 11 -3 39 25 33 34 -3 5
-2 9 3 8 17 -3 24 1 18 11 -3 5 -19 2 -38 -9 l-32 -18 -2 36 c-1 22 5 43 15
55 16 18 16 18 -5 5 -24 -15 -36 -42 -35 -79 1 -19 -1 -21 -8 -10 -5 8 -6 18
-3 24 4 5 1 6 -6 2 -7 -5 -10 -14 -7 -21 3 -8 1 -15 -5 -17 -5 -2 -16 -32 -24
-68 l-15 -65 4 58 c3 31 15 81 29 110 21 46 35 60 128 123 59 40 119 90 138
115 19 24 31 36 28 25 -10 -27 -47 -68 -94 -106 -23 -19 -40 -37 -37 -41 2 -4
-1 -11 -7 -15 -8 -4 -9 -3 -5 4 4 7 2 12 -4 12 -7 0 -10 -6 -7 -12 2 -7 13
-12 25 -12 12 1 19 -3 16 -7 -3 -5 1 -9 8 -10 7 0 3 -4 -9 -9 -16 -7 -21 -14
-16 -26 4 -12 3 -15 -5 -10 -7 4 -12 1 -12 -8 0 -9 22 0 68 30 128 86 192 168
192 248 0 46 -27 125 -51 152 -10 11 -19 24 -19 30 1 13 48 -46 65 -83z
m-3230 -24 c95 -87 124 -220 69 -318 -50 -90 -162 -155 -269 -155 -123 -1
-225 125 -225 273 0 46 28 122 50 136 13 8 46 -18 70 -58 17 -28 17 -31 -2
-73 -16 -38 -17 -50 -8 -79 34 -102 156 -112 257 -21 68 63 75 131 20 209 -17
24 -25 28 -50 23 -49 -10 -60 -24 -52 -73 6 -39 4 -43 -19 -49 -14 -3 -29 -3
-34 0 -13 8 -34 115 -30 155 3 29 9 36 48 52 25 10 64 18 88 18 36 1 49 -5 87
-40z m2976 31 c17 -10 19 -22 19 -108 0 -53 -4 -103 -9 -110 -4 -8 -19 -12
-32 -10 -23 3 -24 6 -27 107 -4 135 1 146 49 121z m110 -421 c70 -99 62 -260
-21 -389 -18 -27 -33 -50 -35 -50 -1 0 0 11 3 25 2 14 7 25 11 25 4 0 6 55 6
123 0 113 -2 126 -27 178 -34 67 -34 67 -6 96 29 31 42 29 69 -8z m-97 -95 c3
-9 6 -153 6 -320 0 -246 -3 -311 -15 -340 -10 -25 -20 -35 -32 -32 -17 3 -18
27 -21 330 -1 197 2 336 8 352 11 29 44 35 54 10z m-923 -1396 c80 -26 139
-51 154 -65 47 -48 38 -137 -21 -200 -31 -33 -32 -35 -17 -64 10 -21 14 -48
10 -82 -3 -41 -11 -56 -35 -78 -63 -56 -120 -58 -283 -8 l-97 30 49 187 c27
103 57 217 66 255 10 40 22 67 30 67 7 0 72 -19 144 -42z m2078 -190 c38 -117
71 -221 73 -232 2 -13 -7 -22 -32 -31 -83 -29 -77 -31 -90 27 -7 29 -39 134
-71 233 -32 98 -57 180 -56 181 8 7 75 33 89 33 13 1 32 -46 87 -211z m-381
106 c148 -61 207 -282 110 -413 -46 -63 -98 -88 -228 -110 -63 -11 -115 -19
-116 -18 -1 1 -20 103 -43 227 -23 124 -45 237 -48 251 -5 26 -3 27 99 52 121
30 175 33 226 11z m-1260 -39 c2 -2 -5 -61 -17 -132 -12 -70 -21 -158 -21
-195 0 -65 1 -68 30 -83 46 -24 95 -20 118 10 25 32 31 65 40 237 5 76 11 140
14 143 3 3 31 2 63 -1 l57 -7 -7 -41 c-3 -23 -15 -106 -25 -185 -16 -114 -25
-152 -46 -188 -27 -46 -71 -74 -116 -72 -16 0 -11 4 17 13 26 8 39 17 36 27
-2 8 -4 29 -3 47 0 17 -5 32 -10 32 -6 0 -7 -7 -4 -16 3 -8 2 -13 -3 -9 -5 3
-11 0 -13 -6 -5 -16 -136 -10 -160 7 -15 12 -24 11 -58 -4 -22 -9 -22 -11 -5
-12 14 0 16 -3 7 -8 -30 -20 61 -61 138 -63 19 0 29 -3 22 -6 -7 -3 -38 -2
-68 2 -41 5 -64 14 -90 37 -64 57 -65 60 -38 273 13 105 24 196 24 204 0 11
12 12 57 7 31 -4 59 -8 61 -11z m832 -270 c11 -142 17 -262 14 -267 -3 -4 -27
-8 -53 -8 l-47 0 -114 165 c-62 91 -115 163 -117 161 -2 -2 1 -50 6 -107 6
-57 11 -133 13 -169 l2 -65 -51 -3 -52 -3 -5 43 c-3 24 -8 102 -12 173 -3 72
-10 168 -14 215 -5 46 -8 85 -7 86 1 1 29 6 63 9 l61 7 106 -153 c89 -128 104
-155 94 -168 -11 -14 -10 -14 6 -2 9 8 15 21 13 30 -3 9 -10 70 -16 136 -6 66
-13 130 -15 141 -4 19 2 22 48 31 28 5 53 8 55 7 1 -1 11 -117 22 -259z m1074
-465 c-17 -17 -298 -118 -399 -144 -570 -142 -1189 -173 -1655 -81 -86 17 -53
14 180 -16 118 -15 216 -19 420 -19 370 0 589 25 978 110 28 6 50 15 48 19 -3
4 8 5 25 3 16 -2 29 0 29 5 0 5 12 10 26 11 41 3 145 38 218 71 36 17 71 31
79 31 7 0 22 6 33 14 20 15 34 12 18 -4z m-2901 -487 c39 -27 87 -97 87 -126
0 -16 29 -17 324 -17 l325 0 20 -29 c12 -16 21 -32 21 -35 0 -3 -18 -6 -40 -6
l-40 0 0 -181 0 -180 -37 3 -38 3 -3 178 -2 177 -55 0 -55 0 0 -180 0 -180
-35 0 c-35 0 -35 0 -35 46 0 38 -3 45 -16 40 -71 -27 -141 -17 -189 28 -29 28
-35 40 -35 74 0 23 5 53 12 67 13 29 55 55 88 55 15 0 20 6 20 25 l0 25 -105
0 -105 0 0 -180 0 -180 -24 -6 c-40 -10 -46 2 -46 92 l0 84 -48 0 c-27 0 -72
-7 -102 -16 l-53 -16 59 -59 c49 -50 57 -62 48 -77 -20 -31 -40 -23 -87 35
-25 32 -64 78 -87 103 -48 51 -61 78 -53 109 6 25 44 28 63 5 8 -9 25 -14 44
-12 30 3 31 4 34 60 l3 57 -83 3 -83 3 -3 33 -3 32 179 0 c178 0 180 0 175 21
-3 12 -22 37 -41 56 -35 35 -36 36 -103 29 -71 -6 -79 -2 -79 44 0 15 9 20 43
23 64 6 98 -1 140 -30z m2014 1 c23 -17 46 -49 62 -86 22 -50 29 -58 53 -58
17 0 34 -10 47 -26 29 -37 27 -44 -19 -44 l-40 0 0 -181 0 -180 -37 3 -38 3
-5 72 c-4 63 -8 74 -33 93 -31 24 -28 40 9 40 23 0 24 2 24 75 l0 75 -50 0
-50 0 0 -180 0 -180 -35 0 -35 0 0 70 0 70 -49 0 c-43 0 -50 -3 -53 -22 -5
-37 -28 -32 -74 17 -37 38 -45 52 -42 78 2 27 8 33 31 35 27 3 28 5 25 55 l-3
52 -70 3 -70 3 3 -81 4 -80 -37 -37 -36 -36 45 -46 c44 -44 45 -48 30 -69 -8
-12 -21 -22 -29 -22 -21 0 -165 188 -165 215 0 35 22 47 73 40 52 -8 60 2 50
70 l-6 45 -93 0 -94 0 0 -181 0 -180 -37 3 -38 3 -3 52 c-3 51 -3 52 -28 43
-14 -6 -44 -10 -66 -10 -35 0 -47 6 -86 45 l-45 45 6 68 c3 37 7 76 9 86 2 14
-4 21 -21 26 -23 5 -47 51 -33 64 3 3 246 6 539 6 l534 0 -7 23 c-9 31 -42 75
-64 87 -14 7 -34 7 -65 -1 -25 -6 -48 -10 -50 -8 -2 2 -5 17 -7 34 -3 25 1 30
27 36 51 13 104 2 142 -27z m1118 12 c24 -10 35 -22 35 -35 0 -18 -6 -21 -38
-21 -48 0 -62 -14 -62 -62 0 -37 1 -38 34 -38 66 0 91 -62 28 -68 l-32 -3 0
-180 c0 -174 -1 -179 -21 -179 -47 0 -59 17 -59 85 l0 65 -55 0 c-39 0 -55 -4
-55 -13 0 -7 -6 -21 -13 -31 -12 -17 -15 -16 -45 9 -64 54 -79 125 -26 125 24
0 25 2 22 58 l-3 57 -67 3 -68 3 0 -181 0 -180 -29 0 c-33 0 -40 7 -43 42 -2
23 -5 24 -53 20 -45 -4 -55 -1 -84 24 -36 30 -70 94 -71 132 0 13 -9 35 -20
49 -26 33 -25 40 3 39 24 0 117 15 117 19 0 29 -16 35 -91 35 l-79 0 0 35 0
35 325 0 326 0 -7 48 c-7 58 14 108 48 115 41 8 48 7 83 -7z"/>
<path d="M1300 6787 c0 -9 -5 -17 -11 -17 -7 0 -9 -10 -7 -25 3 -14 1 -25 -4
-25 -5 0 -6 -4 -3 -10 3 -5 2 -10 -4 -10 -5 0 -12 6 -14 13 -3 6 -4 -7 -2 -30
2 -33 -1 -43 -13 -43 -12 0 -12 -3 -2 -15 7 -9 10 -18 6 -22 -3 -3 -6 0 -6 7
0 11 -3 11 -12 2 -8 -8 -8 -15 2 -27 10 -12 10 -15 -4 -15 -18 0 -22 -15 -6
-25 13 -8 3 -25 -13 -21 -7 1 -9 1 -6 -1 3 -2 0 -27 -7 -55 -8 -28 -11 -54 -9
-59 3 -4 1 -10 -5 -14 -6 -4 -8 -11 -5 -16 4 -5 2 -9 -3 -9 -18 0 -21 -40 -4
-50 16 -9 16 -9 1 -10 -18 0 -36 -30 -19 -30 6 0 10 -5 10 -11 0 -5 -4 -7 -10
-4 -6 3 -7 -1 -4 -9 4 -11 0 -16 -10 -16 -19 0 -22 -26 -3 -33 10 -4 10 -6 0
-6 -7 -1 -13 -10 -13 -21 0 -11 6 -20 13 -20 8 0 9 -2 1 -8 -7 -4 -12 -34 -12
-69 -1 -87 -1 -85 -13 -77 -8 4 -8 0 0 -15 7 -13 8 -21 2 -21 -5 0 -8 -10 -6
-22 3 -12 -1 -28 -7 -36 -6 -7 -13 -42 -14 -77 -1 -35 -5 -69 -9 -75 -4 -6 -1
-18 7 -27 7 -9 9 -14 3 -11 -6 4 -10 -7 -10 -25 1 -19 6 -31 13 -30 6 2 9 -4
6 -12 -4 -8 -9 -13 -13 -11 -9 6 -7 -61 2 -70 11 -11 8 -26 -3 -19 -14 9 -13
-8 2 -23 9 -9 9 -12 -2 -12 -7 0 -11 -2 -8 -6 3 -3 2 -20 -2 -39 -5 -22 -4
-35 3 -38 6 -2 7 -9 1 -19 -5 -9 -7 -44 -6 -77 3 -47 7 -61 19 -61 12 0 10 -5
-7 -20 -13 -11 -19 -20 -13 -20 5 0 14 -20 20 -45 6 -25 7 -45 3 -45 -4 0 -7
-7 -7 -15 0 -8 5 -11 10 -8 6 4 8 -2 5 -15 -4 -12 -3 -24 1 -27 5 -2 6 -23 4
-45 -2 -24 0 -40 7 -40 5 0 10 -5 10 -11 0 -5 -4 -8 -9 -5 -5 4 -4 -7 2 -24 7
-20 14 -25 19 -17 6 9 8 9 8 0 0 -6 -5 -15 -11 -18 -5 -4 -8 -12 -6 -18 2 -7
0 -21 -6 -31 -8 -16 -6 -18 8 -12 14 5 15 3 8 -6 -13 -17 -13 -48 1 -48 6 0 5
-4 -2 -9 -11 -7 -10 -9 3 -15 11 -4 14 -12 10 -26 -4 -13 -2 -20 7 -20 10 0 9
-3 -2 -10 -13 -8 -13 -10 1 -15 9 -3 15 -19 16 -42 1 -19 5 -38 10 -42 13 -8
23 -51 12 -51 -5 0 -9 -5 -9 -11 0 -5 5 -7 12 -3 8 5 9 -2 5 -25 -5 -23 -3
-30 5 -25 6 4 8 3 5 -4 -11 -16 3 -41 19 -35 8 3 14 0 14 -6 0 -6 -6 -11 -12
-11 -9 0 -8 -4 2 -10 12 -8 12 -10 -5 -10 -15 0 -17 -3 -7 -9 8 -4 13 -11 13
-15 -4 -28 1 -46 14 -46 8 0 15 5 15 11 0 5 -5 7 -10 4 -5 -3 -10 -1 -10 4 0
6 5 11 10 11 18 0 23 -30 11 -56 -7 -15 -7 -23 -1 -19 6 3 11 -5 12 -19 0 -14
1 -31 2 -38 1 -7 11 -23 24 -37 22 -24 30 -47 12 -36 -5 3 -10 1 -10 -4 0 -6
9 -16 19 -23 16 -10 18 -15 8 -27 -10 -12 -9 -13 2 -6 11 6 13 4 8 -8 -4 -11
1 -20 13 -27 16 -8 18 -15 10 -29 -5 -10 -6 -21 -3 -25 3 -3 1 -6 -6 -6 -8 0
-7 -5 3 -16 9 -8 14 -20 11 -25 -4 -5 1 -9 11 -9 12 0 15 -6 11 -21 -4 -15 -2
-19 8 -15 10 3 12 -2 9 -20 -2 -13 0 -24 6 -24 6 0 8 -4 5 -10 -3 -6 -1 -10 4
-10 6 0 11 -5 11 -11 0 -5 -6 -7 -12 -3 -7 4 -5 -1 4 -12 9 -10 18 -26 20 -34
2 -8 8 -19 14 -25 20 -17 63 -103 56 -111 -4 -4 -1 -4 6 0 10 6 16 -3 14 -25
-1 -3 10 -18 24 -34 13 -15 24 -22 24 -15 0 7 3 10 6 7 4 -4 1 -13 -6 -22 -10
-12 -10 -15 1 -15 11 0 11 -2 -1 -10 -10 -6 -11 -10 -2 -10 6 0 21 -9 33 -21
16 -16 18 -23 8 -35 -7 -8 -8 -14 -3 -13 5 1 15 1 23 0 11 -1 11 -4 0 -18 -12
-14 -12 -16 0 -8 11 6 13 3 9 -13 -4 -12 -2 -20 3 -16 5 3 9 0 9 -7 0 -8 4 -8
16 2 13 11 14 9 8 -16 -6 -25 -5 -28 15 -22 11 3 18 1 15 -4 -3 -5 2 -12 10
-15 11 -4 13 -11 6 -30 -10 -26 -4 -54 12 -54 5 0 7 4 3 9 -3 5 -1 12 5 16 5
3 10 0 10 -7 0 -9 3 -9 10 2 5 8 10 11 11 5 0 -5 2 -18 4 -27 2 -13 -3 -18
-18 -19 -17 -1 -18 -2 -4 -6 15 -4 21 -15 19 -34 -1 -4 9 -5 21 -2 13 3 18 1
12 -4 -6 -4 -10 -21 -9 -38 0 -16 -4 -39 -9 -50 -9 -18 -8 -19 6 -6 14 11 18
11 23 -3 3 -9 10 -13 15 -10 5 3 6 10 3 16 -5 8 -1 9 10 5 10 -4 20 -7 22 -7
3 0 2 -5 -2 -12 -5 -8 -2 -9 11 -5 23 10 44 -9 38 -33 -6 -23 3 -26 22 -6 12
12 8 20 -26 57 -22 24 -39 44 -38 44 1 0 -10 19 -25 42 -16 24 -32 40 -37 37
-5 -3 -6 1 -3 9 3 8 -8 28 -23 45 -15 16 -29 36 -31 44 -2 7 -9 20 -16 28 -7
8 -39 59 -71 113 -32 53 -62 97 -68 97 -6 0 -8 3 -5 6 4 3 -19 56 -51 117
-196 386 -332 787 -392 1161 -11 72 -23 138 -26 146 -7 21 -10 78 -19 375 -6
237 0 414 22 605 9 79 54 323 70 379 9 30 13 62 11 73 -3 10 -2 16 3 13 4 -2
15 27 25 67 9 39 30 109 46 157 18 55 25 89 19 95 -7 7 -10 4 -10 -7z"/>
<path d="M7992 2747 c-62 -63 -109 -117 -105 -120 3 -4 -2 -7 -13 -7 -11 0
-34 -15 -51 -33 l-31 -33 28 4 c28 4 28 4 20 -34 -5 -21 -7 -40 -5 -42 2 -3
17 6 32 20 32 28 43 54 18 44 -9 -3 -13 -2 -10 4 9 14 32 12 38 -2 4 -10 7
-10 17 -1 11 10 11 15 0 28 -15 18 0 20 19 3 11 -11 11 -9 2 10 -10 19 -15 21
-27 12 -7 -7 -20 -10 -28 -7 -16 6 -40 -16 -29 -27 4 -4 0 -4 -10 0 -9 3 -17
13 -17 21 0 10 6 13 16 9 10 -4 13 -2 8 6 -4 6 -3 8 3 5 6 -4 18 2 28 13 19
21 41 28 30 10 -3 -5 -1 -10 4 -10 6 0 11 7 11 16 0 8 5 12 10 9 6 -4 7 -11 4
-17 -4 -7 -2 -8 5 -4 6 4 14 0 17 -9 9 -22 37 2 31 27 -3 10 -1 18 4 18 5 0 9
-5 9 -11 0 -5 5 -7 11 -3 6 3 7 9 3 13 -5 3 -19 20 -31 37 -20 29 -20 33 -6
47 15 15 18 14 30 -11 9 -17 11 -28 4 -30 -6 -2 -11 -7 -11 -11 0 -12 48 -7
61 6 9 9 7 11 -8 7 -13 -4 -23 0 -27 11 -5 14 -2 16 14 12 11 -3 20 -1 20 4 0
5 -5 9 -10 9 -7 0 -7 6 -1 18 5 9 9 22 9 27 1 6 11 13 24 17 22 6 21 9 -2 12
-5 0 -9 6 -7 11 1 6 5 9 8 8 3 -1 6 5 6 13 0 8 -1 14 -2 14 0 0 -51 -51 -113
-113z"/>
<path d="M7743 2517 c-18 -12 -31 -29 -30 -37 1 -8 -2 -15 -8 -15 -5 0 -9 4
-7 8 1 5 -15 -6 -37 -25 -22 -18 -35 -36 -29 -39 7 -4 6 -9 -1 -13 -6 -4 -9
-11 -6 -16 3 -4 -8 -6 -25 -4 -18 3 -30 1 -30 -6 0 -6 6 -8 13 -4 9 5 9 3 -1
-7 -10 -11 -15 -11 -20 -2 -6 9 -16 5 -37 -12 -17 -14 -22 -22 -13 -19 13 4
15 1 11 -15 -3 -14 0 -23 11 -27 9 -3 13 -11 9 -17 -3 -5 -1 -7 5 -4 5 4 8 17
5 30 -4 18 -3 19 6 7 10 -13 15 -8 12 13 0 4 11 7 25 7 20 0 25 4 20 16 -5 14
-4 15 8 5 8 -7 14 -18 12 -24 -1 -7 -1 -9 1 -4 3 4 8 5 13 2 4 -3 14 3 21 13
13 15 12 16 -3 4 -13 -10 -18 -10 -24 -1 -4 7 -2 15 4 17 7 2 12 11 12 20 0
15 -2 15 -10 2 -6 -9 -10 -10 -10 -3 0 18 34 33 83 36 9 1 19 9 22 18 6 19 35
34 35 19 0 -6 -4 -10 -10 -10 -5 0 -10 -4 -10 -10 0 -17 14 -10 33 16 13 18
16 29 8 37 -7 9 -4 16 10 25 21 13 16 37 -6 28 -7 -2 -17 0 -22 5 -5 5 -21 0
-40 -14z"/>
<path d="M5525 9006 c-6 -14 -35 -258 -35 -285 0 -19 6 -21 65 -21 35 0 76 5
90 12 40 18 65 76 65 148 0 71 -19 114 -58 133 -37 19 -122 28 -127 13z"/>
<path d="M2351 5645 c-2 -21 0 -213 3 -332 2 -60 0 -73 -13 -74 -11 0 -12 -2
-3 -6 6 -2 12 -11 12 -19 0 -8 5 -14 10 -14 6 0 10 -12 10 -26 0 -16 -4 -23
-12 -18 -7 4 -8 3 -4 -5 4 -6 12 -9 17 -6 5 4 9 -4 9 -17 0 -19 -2 -20 -11 -8
-13 20 -7 -79 6 -100 24 -38 33 -60 25 -65 -12 -8 -6 -45 13 -82 22 -42 22
-46 0 -54 -17 -7 -17 -8 0 -8 9 -1 17 -7 17 -15 0 -8 5 -16 10 -18 6 -2 12
-13 13 -26 0 -12 5 -22 9 -22 5 0 5 -12 2 -27 -6 -22 -4 -25 10 -20 13 5 15 3
7 -10 -5 -10 -5 -26 0 -40 5 -13 6 -31 3 -40 -5 -17 -5 -17 6 0 6 9 8 22 4 29
-4 6 -3 8 4 4 6 -4 8 -21 5 -41 -5 -30 -3 -34 11 -29 11 4 16 2 14 -6 -2 -7 3
-15 11 -18 8 -3 11 1 8 9 -36 87 -127 404 -127 440 0 11 -3 18 -7 16 -5 -3 -8
7 -9 21 0 15 -8 88 -18 162 -10 74 -22 214 -26 310 -4 96 -8 166 -9 155z"/>
<path d="M2170 7481 c8 -6 11 -11 6 -11 -5 0 -2 -7 5 -17 8 -9 13 -19 12 -22
-2 -3 5 -6 15 -6 9 0 25 -8 34 -17 15 -15 163 -68 189 -68 5 0 0 9 -11 20 -11
11 -20 28 -20 39 0 10 -8 21 -17 24 -10 3 -56 17 -103 31 -125 38 -128 39
-110 27z"/>
<path d="M8100 7168 c-30 -18 -65 -48 -77 -67 -30 -44 -31 -118 -3 -154 21
-27 26 -42 11 -32 -6 3 -9 -4 -8 -15 1 -19 2 -20 14 -5 11 16 14 16 35 1 12
-9 34 -16 48 -16 42 0 123 44 162 88 53 58 57 85 24 147 -47 91 -114 108 -206
53z"/>
<path d="M1921 7162 c3 -22 -2 -42 -10 -38 -5 3 -13 0 -19 -7 -12 -14 12 -27
148 -77 47 -18 91 -35 98 -37 6 -3 12 -1 12 5 0 6 -13 13 -30 17 -16 4 -30 11
-30 16 0 6 6 7 13 3 7 -5 6 0 -3 11 -11 14 -12 17 -1 11 9 -6 12 -4 9 5 -6 20
-189 109 -187 91z"/>
<path d="M8250 6652 c0 -7 -4 -11 -9 -7 -6 3 -39 -6 -76 -21 -57 -23 -63 -28
-49 -39 11 -7 15 -19 11 -29 -4 -10 5 -64 19 -122 l27 -105 31 7 c17 3 32 7
33 8 1 1 -5 30 -13 66 -29 133 -30 125 7 140 94 35 209 83 209 86 0 6 -34 -1
-48 -10 -16 -10 -44 12 -35 28 5 8 3 8 -8 0 -18 -14 -82 -14 -91 0 -5 7 -8 7
-8 -2z"/>
<path d="M1717 6468 c-17 -13 -49 -116 -38 -122 17 -9 102 -28 106 -24 3 3 8
32 11 66 5 43 3 66 -6 77 -15 18 -50 20 -73 3z"/>
<path d="M5096 5648 c-3 -18 -7 -103 -8 -188 l-3 -155 27 -3 c15 -2 36 2 48 8
20 11 21 16 15 168 -7 174 -10 202 -26 202 -6 0 -8 -8 -4 -19 4 -15 0 -18 -18
-18 -19 0 -23 4 -20 18 3 11 3 19 0 19 -4 0 -8 -15 -11 -32z"/>
<path d="M1630 5497 c0 -5 -7 -6 -16 -3 -12 4 -15 2 -10 -9 3 -8 2 -14 -2 -14
-25 4 -33 -4 -12 -12 19 -7 14 -8 -20 -4 -76 8 -22 -11 65 -24 44 -6 96 -14
115 -17 108 -18 103 -18 91 4 -8 15 -8 22 2 25 8 4 7 6 -3 6 -9 1 -21 -4 -28
-11 -7 -7 -12 -8 -12 -2 0 6 -12 10 -27 10 -17 -1 -27 5 -29 16 -2 16 3 17 39
12 23 -4 39 -3 34 1 -4 5 -15 9 -25 10 -9 1 -42 7 -72 13 -64 12 -90 12 -90
-1z"/>
<path d="M1810 5321 c-25 -9 -83 -28 -130 -41 -82 -23 -131 -47 -96 -47 8 0
13 4 10 9 -3 4 0 8 5 8 6 0 11 -12 11 -26 0 -22 -3 -24 -14 -15 -11 9 -16 9
-22 0 -4 -7 -3 -9 3 -6 6 4 16 1 22 -7 9 -11 5 -15 -25 -20 -20 -4 -34 -10
-30 -13 6 -6 159 35 271 73 39 13 60 23 49 24 -12 0 -28 8 -35 17 -10 11 -10
14 -1 9 8 -5 16 2 22 20 6 15 9 28 8 29 -2 2 -23 -5 -48 -14z"/>
<path d="M1797 4929 c-126 -30 -184 -113 -141 -204 33 -70 104 -92 195 -60 76
27 119 83 119 156 0 33 -6 47 -34 75 -19 19 -43 34 -54 34 -11 0 -26 2 -34 4
-7 2 -30 0 -51 -5z"/>
<path d="M1640 4680 c0 -5 5 -10 11 -10 5 0 7 -4 4 -10 -3 -5 1 -10 9 -10 9 0
16 -7 16 -15 0 -8 -5 -15 -11 -15 -5 0 -7 6 -3 13 4 6 3 9 -1 4 -21 -19 -11
-47 24 -63 67 -32 194 -18 256 29 19 14 18 15 -8 10 -15 -3 -30 -9 -32 -14 -8
-12 -35 1 -35 16 0 9 -8 11 -22 7 -14 -3 -19 -1 -14 6 3 6 17 9 31 6 18 -3 23
-1 19 10 -4 11 -12 12 -35 4 -16 -5 -54 -8 -84 -6 -30 1 -55 0 -55 -4 0 -5 6
-8 14 -8 8 0 17 -7 20 -16 9 -24 7 -27 -10 -10 -12 13 -18 13 -29 3 -7 -6 -11
-15 -8 -19 2 -5 0 -8 -5 -8 -17 0 -21 13 -11 32 6 10 8 26 5 36 -7 20 -46 47
-46 32z"/>
<path d="M5181 4061 l-25 -19 30 -63 c27 -59 29 -73 29 -180 0 -109 1 -115 15
-90 49 82 59 220 21 304 -11 27 -25 46 -31 42 -6 -3 -7 1 -4 9 8 21 -6 20 -35
-3z"/>
<path d="M5090 3552 c0 -215 3 -273 13 -270 31 11 37 52 35 270 -1 141 -5 216
-12 215 -5 -1 -10 3 -11 8 0 6 -6 19 -12 30 -10 16 -12 -37 -13 -253z"/>
<path d="M4141 2462 c-25 -94 -26 -87 17 -100 50 -15 95 -15 110 0 18 18 15
73 -5 90 -10 8 -39 22 -65 31 l-48 16 -9 -37z"/>
<path d="M4007 2333 c-7 -36 -3 -40 20 -14 19 23 38 27 49 10 4 -8 -1 -9 -16
-4 -18 6 -22 4 -17 -8 4 -11 -1 -19 -16 -23 -12 -5 -25 -7 -28 -6 -10 2 -40
-148 -33 -160 5 -7 2 -8 -6 -3 -8 5 -11 3 -8 -5 7 -22 165 -70 229 -70 74 0
89 6 89 37 0 22 -2 24 -15 13 -12 -10 -15 -10 -15 4 0 9 4 16 9 16 5 0 8 8 6
18 -2 9 -4 19 -4 21 -1 3 -7 -4 -15 -14 -8 -11 -12 -23 -10 -27 2 -4 -1 -10
-7 -14 -8 -4 -9 -3 -5 4 5 8 -1 12 -16 12 -18 0 -20 -2 -8 -10 19 -12 5 -13
-18 -1 -9 5 -39 15 -65 22 l-49 12 6 51 c6 51 -3 84 -21 73 -5 -3 -10 0 -10 8
0 8 6 15 13 15 7 0 15 6 17 13 3 6 6 -4 8 -23 1 -29 3 -30 6 -10 7 36 20 40
72 24 59 -18 66 -17 50 2 -10 13 -10 17 1 24 12 8 12 10 0 14 -38 13 -86 3
-74 -15 3 -5 1 -9 -5 -9 -5 0 -12 6 -14 13 -4 10 -6 10 -6 0 -1 -7 -6 -13 -12
-13 -5 0 -8 4 -4 9 3 5 -5 17 -17 25 -17 12 -24 13 -30 3 -6 -9 -10 -9 -17 1
-6 10 -10 6 -14 -15z"/>
<path d="M4094 2263 c-3 -16 -10 -44 -15 -63 -5 -19 -9 -38 -9 -41 0 -8 80
-29 109 -29 32 0 61 35 61 74 0 40 -12 51 -76 71 -64 19 -63 19 -70 -12z"/>
<path d="M5765 2393 c-16 -3 -34 -8 -38 -12 -5 -5 6 -79 22 -164 17 -86 31
-158 31 -161 0 -7 65 11 104 29 50 24 76 67 76 126 0 83 -32 144 -92 175 -27
14 -45 15 -103 7z"/>
<path d="M5975 2151 c3 -12 2 -20 -2 -19 -5 2 -20 -9 -34 -25 -27 -31 -131
-71 -160 -62 -12 4 -19 15 -19 30 0 13 -4 26 -9 29 -4 3 -6 -7 -3 -22 4 -22 2
-25 -9 -14 -7 6 -21 12 -30 12 -18 0 -33 30 -38 72 0 6 -3 9 -6 6 -3 -3 2 -49
12 -103 l17 -97 61 7 c93 10 177 34 213 62 18 14 31 27 28 30 -3 3 5 14 17 24
13 12 16 18 7 17 -9 -2 -16 8 -20 31 -3 19 -11 36 -19 39 -9 3 -11 -2 -6 -17z"/>
<path d="M4046 978 c3 -18 12 -50 21 -70 9 -20 13 -44 10 -52 -10 -26 -46 -19
-59 12 -7 15 -13 28 -14 30 -1 2 -16 -4 -32 -12 -33 -17 -47 -45 -37 -76 5
-16 15 -20 56 -20 28 0 62 6 77 14 27 14 28 16 27 108 l0 93 -27 3 c-26 3 -27
2 -22 -30z"/>
<path d="M4757 980 c3 -18 -1 -48 -11 -75 -24 -62 -18 -87 21 -99 25 -6 44 -4
78 8 l45 18 0 89 0 89 -70 0 -69 0 6 -30z"/>
<path d="M6245 993 c20 -50 19 -53 -23 -53 -23 0 -45 -6 -52 -15 -11 -13 -7
-14 32 -9 49 7 64 -3 53 -36 -4 -14 -15 -20 -35 -20 -60 0 -76 -23 -44 -68 11
-16 25 -22 54 -22 63 0 71 16 68 134 l-3 101 -29 3 c-24 3 -28 1 -21 -15z"/>
</g>
</svg>
